{"title":"TNA iMPACT Wrestling 2015 06 24 HDTV x264-PPKORE -={SPARROW}=-","uid":12060161,"size":842995526,"categoryP":"video","categoryS":"tv_shows","magnet":"?xt=urn:btih:af3ddd1ed6c75478d55d2a227ee7b746c869c367&amp;dn=TNA+iMPACT+Wrestling+2015+06+24+HDTV+x264-PPKORE+-%3D%7BSPARROW%7D%3D-&amp;tr=udp%3A%2F%2Ftracker.openbittorrent.com%3A80&amp;tr=udp%3A%2F%2Fopen.demonii.com%3A1337&amp;tr=udp%3A%2F%2Ftracker.coppersurfer.tk%3A6969&amp;tr=udp%3A%2F%2Fexodus.desync.com%3A6969","seeders":7,"leechers":0,"uploader":"CenaCme","files":2,"time":1435191561,"description":"Quick and easy encode from Destination America HD, enjoy.\n\nGeneral\nComplete name                            : TNA.iMPACT.Wrestling.2015.06.24.HDTV.x264-PPKORE.mp4\nFormat                                  : MPEG-4\nFormat profile                          : Base Media\nCodec ID                                : isom\nFile size                                : 804 MiB\nDuration                                : 1h 28mn\nOverall bit rate mode                    : Variable\nOverall bit rate                        : 1 273 Kbps\nEncoded date                            : UTC 2015-06-25 09:47:54\nTagged date                              : UTC 2015-06-25 09:47:54\n\nVideo\nID                                      : 1\nFormat                                  : AVC\nFormat/Info                              : Advanced Video Codec\nFormat profile                          : &lt;a class=&quot;__cf_email__&quot; href=&quot;/cdn-cgi/l/email-protection&quot; data-cfemail=&quot;3f775658577f730b110e&quot;&gt;[email&amp;#160;protected]&lt;/a&gt;&lt;script data-cfhash='f9e31' type=&quot;text/javascript&quot;&gt;\n/* &lt;![CDATA[ */!function(){try{var t=&quot;currentScript&quot;in document?document.currentScript:function(){for(var t=document.getElementsByTagName(&quot;script&quot;),e=t.length;e--;)if(t[e].getAttribute(&quot;data-cfhash&quot;))return t[e]}();if(t&amp;&amp;t.previousSibling){var e,r,n,i,c=t.previousSibling,a=c.getAttribute(&quot;data-cfemail&quot;);if(a){for(e=&quot;&quot;,r=parseInt(a.substr(0,2),16),n=2;a.length-n;n+=2)i=parseInt(a.substr(n,2),16)^r,e+=String.fromCharCode(i);e=document.createTextNode(e),c.parentNode.replaceChild(e,c)}t.parentNode.removeChild(t);}}catch(u){}}()/* ]]&gt; */&lt;/script&gt;\nFormat settings, CABAC                  : Yes\nFormat settings, ReFrames                : 4 frames\nCodec ID                                : avc1\nCodec ID/Info                            : Advanced Video Coding\nDuration                                : 1h 28mn\nBit rate mode                            : Variable\nBit rate                                : 1 140 Kbps\nMaximum bit rate                        : 62.5 Mbps\nWidth                                    : 720 pixels\nHeight                                  : 406 pixels\nDisplay aspect ratio                    : 16:9\nFrame rate mode                          : Constant\nFrame rate                              : 29.970 fps\nColor space                              : YUV\nChroma subsampling                      : 4:2:0\nBit depth                                : 8 bits\nScan type                                : Progressive\nBits/(Pixel*Frame)                      : 0.130\nStream size                              : 720 MiB (90%)\nWriting library                          : x264 core 146 r2538 121396c\nEncoding settings                        : cabac=1 / ref=2 / deblock=1:0:0 / analyse=0x3:0x113 / me=hex / subme=6 / psy=1 / psy_rd=1.00:0.00 / mixed_ref=1 / me_range=16 / chroma_me=1 / trellis=1 / 8x8dct=1 / cqm=0 / deadzone=21,11 / fast_pskip=1 / chroma_qp_offset=-2 / threads=12 / lookahead_threads=2 / sliced_threads=0 / nr=0 / decimate=1 / interlaced=0 / bluray_compat=0 / constrained_intra=0 / bframes=3 / b_pyramid=2 / b_adapt=1 / b_bias=0 / direct=1 / weightb=1 / open_gop=0 / weightp=1 / keyint=300 / keyint_min=30 / scenecut=40 / intra_refresh=0 / rc_lookahead=30 / rc=crf / mbtree=1 / crf=24.0 / qcomp=0.60 / qpmin=0 / qpmax=69 / qpstep=4 / vbv_maxrate=62500 / vbv_bufsize=62500 / crf_max=0.0 / nal_hrd=vbr / filler=0 / ip_ratio=1.40 / aq=1:1.00\nEncoded date                            : UTC 2015-06-25 09:47:54\nTagged date                              : UTC 2015-06-25 09:48:04\n\nAudio\nID                                      : 2\nFormat                                  : AAC\nFormat/Info                              : Advanced Audio Codec\nFormat profile                          : LC\nCodec ID                                : 40\nDuration                                : 1h 28mn\nBit rate mode                            : Variable\nBit rate                                : 128 Kbps\nMaximum bit rate                        : 133 Kbps\nChannel(s)                              : 2 channels\nChannel positions                        : Front: L R\nSampling rate                            : 48.0 KHz\nCompression mode                        : Lossy\nStream size                              : 80.9 MiB (10%)\nLanguage                                : English\nEncoded date                            : UTC 2015-06-25 09:48:02\nTagged date                              : UTC 2015-06-25 09:48:04 \n\n\nScreens:\n &lt;a href=&quot;\nhttp://imgsparrow.co/image/Wf&quot; rel=&quot;nofollow&quot; target=&quot;_NEW&quot;&gt;\nhttp://imgsparrow.co/image/Wf&lt;/a&gt;\n &lt;a href=&quot;\nhttp://imgsparrow.co/image/WI&quot; rel=&quot;nofollow&quot; target=&quot;_NEW&quot;&gt;\nhttp://imgsparrow.co/image/WI&lt;/a&gt;\n &lt;a href=&quot;\nhttp://imgsparrow.co/image/WP&quot; rel=&quot;nofollow&quot; target=&quot;_NEW&quot;&gt;\nhttp://imgsparrow.co/image/WP&lt;/a&gt;","torrent":{"xt":"urn:btih:af3ddd1ed6c75478d55d2a227ee7b746c869c367","amp;dn":"TNA+iMPACT+Wrestling+2015+06+24+HDTV+x264-PPKORE+-%3D%7BSPARROW%7D%3D-","amp;tr":["udp%3A%2F%2Ftracker.openbittorrent.com%3A80","udp%3A%2F%2Fopen.demonii.com%3A1337","udp%3A%2F%2Ftracker.coppersurfer.tk%3A6969","udp%3A%2F%2Fexodus.desync.com%3A6969"],"infoHash":"af3ddd1ed6c75478d55d2a227ee7b746c869c367","infoHashBuffer":{"type":"Buffer","data":[175,61,221,30,214,199,84,120,213,93,42,34,126,231,183,70,200,105,195,103]},"announce":[],"urlList":[]}}